<?xml version="1.0" standalone="no"?>
<!DOCTYPE svg PUBLIC "-//W3C//DTD SVG 20010904//EN"
 "http://www.w3.org/TR/2001/REC-SVG-20010904/DTD/svg10.dtd">
<svg version="1.0" xmlns="http://www.w3.org/2000/svg"
 width="192.000000pt" height="192.000000pt" viewBox="0 0 192.000000 192.000000"
 preserveAspectRatio="xMidYMid meet">
<metadata>
Created by potrace 1.14, written by Peter Selinger 2001-2017
</metadata>
<g transform="translate(0.000000,192.000000) scale(0.100000,-0.100000)"
fill="#000000" stroke="none">
<path d="M0 960 l0 -960 960 0 960 0 0 960 0 960 -960 0 -960 0 0 -960z m743
543 c8 -16 58 -148 113 -295 54 -147 101 -268 104 -268 3 0 55 132 116 293
l110 292 132 3 132 3 -2 -588 -3 -588 -125 0 -125 0 0 343 c0 188 -3 342 -6
342 -3 0 -12 -19 -18 -42 -7 -24 -40 -118 -73 -210 l-60 -168 -77 0 -76 0 -62
173 c-34 94 -67 189 -73 210 -6 20 -15 37 -18 37 -4 0 -7 -154 -7 -342 l0
-343 -125 0 -125 0 -3 575 c-1 316 0 581 3 588 3 9 39 12 129 12 l125 0 14
-27z"/>
</g>
</svg>
